# xmcd CD database file
#
# Track frame offsets:
#	150
#	31075
#	52450
#	77265
#	99952
#	121300
#	150925
#	170812
#	191212
#	219080
#	240580
#	279285
#	308520
#
# Disc length: 4477 seconds
#
# Revision: 1
# Processed by: cddbd v1.5.1PL2 Copyright (c) Steve Scherf et al.
# Submitted via: CDex 1.51
#
DISCID=9c117b0d
DTITLE=Ivan Paduart trio - a night in tokyo
DYEAR=2005
DGENRE=Jazz
TTITLE0=Blue landscapes
TTITLE1=Madeira
TTITLE2=Sweet Georgia fame
TTITLE3=Solstice d'ete
TTITLE4=Life as it is
TTITLE5=Igor
TTITLE6=Phantom of the bopera
TTITLE7=I had a ball
TTITLE8=It could happen to you
TTITLE9=If we could
TTITLE10=First rays
TTITLE11=Perpetual movements
TTITLE12=Rainwaltz
EXTD=YEAR: 2005
EXTT0=
EXTT1=
EXTT2=
EXTT3=
EXTT4=
EXTT5=
EXTT6=
EXTT7=
EXTT8=
EXTT9=
EXTT10=
EXTT11=
EXTT12=
PLAYORDER=
